<svg version="1.1" xmlns="http://www.w3.org/2000/svg" width="166px" height="185px" transform="rotate(0) scale(1, 1)">
<path d="M0 0 C0.85049423 0.00222061 1.70098846 0.00444122 2.57725525 0.00672913 C4.01863609 0.00684242 4.01863609 0.00684242 5.48913574 0.00695801 C7.05630592 0.01469994 7.05630592 0.01469994 8.65513611 0.02259827 C9.71913132 0.02401321 10.78312653 0.02542816 11.87936401 0.02688599 C15.29293069 0.03250388 18.70643286 0.04505941 22.11997986 0.05775452 C24.42792162 0.06276721 26.73586441 0.06733052 29.04380798 0.07142639 C34.71505412 0.08247912 40.38626238 0.09923465 46.05747986 0.12025452 C46.68247986 1.99525452 46.68247986 1.99525452 47.05747986 4.12025452 C45.05747986 6.12025452 45.05747986 6.12025452 41.0667572 6.3473053 C39.34227821 6.34680443 37.61777854 6.33573034 35.89341736 6.31556702 C35.08944519 6.31355286 34.28547302 6.3115387 33.45713806 6.3094635 C30.44886077 6.29898565 27.44066469 6.2710631 24.43247986 6.24525452 C14.34685486 6.18337952 14.34685486 6.18337952 4.05747986 6.12025452 C4.05747986 32.19025452 4.05747986 58.26025452 4.05747986 85.12025452 C13.95747986 85.12025452 23.85747986 85.12025452 34.05747986 85.12025452 C36.05747986 87.12025452 36.05747986 87.12025452 36.05747986 93.12025452 C45.29747986 93.12025452 54.53747986 93.12025452 64.05747986 93.12025452 C64.05747986 90.81025452 64.05747986 88.50025452 64.05747986 86.12025452 C65.05747986 85.12025452 65.05747986 85.12025452 68.292099 85.00672913 C69.72562112 85.00688821 71.15914898 85.01258044 72.59263611 85.02259827 C73.72251198 85.02472069 73.72251198 85.02472069 74.87521362 85.02688599 C77.29017546 85.03250076 79.70504587 85.04505569 82.11997986 85.05775452 C83.75344206 85.06276762 85.38690572 85.06733085 87.02037048 85.07142639 C91.03280416 85.08162577 95.04503921 85.10119807 99.05747986 85.12025452 C99.05747986 74.89025452 99.05747986 64.66025452 99.05747986 54.12025452 C100.70747986 53.79025452 102.35747986 53.46025452 104.05747986 53.12025452 C106.05747986 55.12025452 106.05747986 55.12025452 106.28453064 58.10121155 C106.27405701 59.34757385 106.26358337 60.59393616 106.25279236 61.87806702 C106.24996246 62.54111847 106.24713257 63.20416992 106.24421692 63.88731384 C106.23301421 66.00681035 106.20791037 68.12588556 106.18247986 70.24525452 C106.17245013 71.68144633 106.16332427 73.11764477 106.15513611 74.55384827 C106.13307486 78.0761208 106.09854479 81.59814655 106.05747986 85.12025452 C106.6955658 85.10865295 107.33365173 85.09705139 107.99107361 85.08509827 C108.81736267 85.07607483 109.64365173 85.06705139 110.49497986 85.05775452 C111.3186908 85.04615295 112.14240173 85.03455139 112.99107361 85.02259827 C115.05747986 85.12025452 115.05747986 85.12025452 116.05747986 86.12025452 C116.31049224 90.25987734 116.24270534 94.41131448 116.24497986 98.55775452 C116.25722595 99.7288678 116.26947205 100.89998108 116.28208923 102.10658264 C116.28402283 103.2235553 116.28595642 104.34052795 116.28794861 105.49134827 C116.2920575 106.52187317 116.29616638 107.55239807 116.30039978 108.614151 C116.05747986 111.12025452 116.05747986 111.12025452 114.05747986 113.12025452 C111.86759281 113.3719368 111.86759281 113.3719368 109.0916748 113.3742218 C108.0414917 113.37986145 106.99130859 113.3855011 105.90930176 113.39131165 C104.75236313 113.38726318 103.5954245 113.38321472 102.40342712 113.37904358 C101.18875763 113.38254822 99.97408813 113.38605286 98.72261047 113.3896637 C95.38577012 113.39697311 92.0491768 113.39523821 88.71235013 113.38890553 C85.22370646 113.38385077 81.73507352 113.38853562 78.24642944 113.39167786 C72.38614501 113.39531952 66.52591094 113.39051368 60.66563416 113.3809967 C53.88779077 113.37011681 47.11006775 113.37363349 40.33222729 113.38464952 C34.51731573 113.39372275 28.70244042 113.39500734 22.88752407 113.38977218 C19.4126726 113.38665202 15.93787771 113.38624427 12.46302986 113.39284515 C8.58894796 113.3996899 4.71500105 113.39020519 0.84092712 113.37904358 C-0.31398727 113.38309204 -1.46890167 113.3871405 -2.65881348 113.39131165 C-4.23831787 113.38285217 -4.23831787 113.38285217 -5.84973145 113.3742218 C-7.2243764 113.37309072 -7.2243764 113.37309072 -8.62679195 113.3719368 C-10.94252014 113.12025452 -10.94252014 113.12025452 -13.94252014 111.12025452 C-14.29896545 108.72181702 -14.29896545 108.72181702 -14.27064514 105.74525452 C-14.26548889 104.67791077 -14.26033264 103.61056702 -14.25502014 102.51087952 C-14.23439514 101.39197327 -14.21377014 100.27306702 -14.19252014 99.12025452 C-14.18736389 98.00134827 -14.18220764 96.88244202 -14.17689514 95.72962952 C-14.09669194 87.42859811 -14.09669194 87.42859811 -12.94252014 85.12025452 C-9.64252014 85.12025452 -6.34252014 85.12025452 -2.94252014 85.12025452 C-2.94474075 84.07011673 -2.94696136 83.01997894 -2.94924927 81.9380188 C-2.96948029 72.06379871 -2.98449209 62.1895828 -2.99433231 52.31534672 C-2.99956124 47.23834434 -3.00665906 42.16135863 -3.01795959 37.08436584 C-3.02878813 32.189049 -3.0347969 27.29374823 -3.03739738 22.39842033 C-3.0392517 20.52642501 -3.04287242 18.65443061 -3.0482502 16.78244209 C-3.05546019 14.16984752 -3.0565111 11.55732025 -3.05604553 8.94471741 C-3.05964081 8.16285065 -3.06323608 7.38098389 -3.06694031 6.57542419 C-3.05454337 0.18909592 -3.05454337 0.18909592 0 0 Z M-6.94252014 91.12025452 C-6.94252014 96.07025452 -6.94252014 101.02025452 -6.94252014 106.12025452 C31.66747986 106.12025452 70.27747986 106.12025452 110.05747986 106.12025452 C110.05747986 101.17025452 110.05747986 96.22025452 110.05747986 91.12025452 C97.18747986 91.12025452 84.31747986 91.12025452 71.05747986 91.12025452 C70.72747986 93.43025452 70.39747986 95.74025452 70.05747986 98.12025452 C57.18747986 98.12025452 44.31747986 98.12025452 31.05747986 98.12025452 C30.39747986 95.81025452 29.73747986 93.50025452 29.05747986 91.12025452 C17.17747986 91.12025452 5.29747986 91.12025452 -6.94252014 91.12025452 Z " fill="#b98a08" transform="translate(23.942520141601563,30.879745483398438)"/>
<path d="M0 0 C1.08152344 -0.01417969 2.16304687 -0.02835938 3.27734375 -0.04296875 C6.0625 0.1875 6.0625 0.1875 8.0625 2.1875 C8.1875 5.8125 8.1875 5.8125 8.0625 9.1875 C10.43679296 9.43819913 10.43679296 9.43819913 13.0625 9.1875 C13.5575 8.6925 14.0525 8.1975 14.5625 7.6875 C16.0625 6.1875 16.0625 6.1875 18.375 5.625 C22.43558194 6.47488924 24.70012467 8.84867621 27.0625 12.1875 C27.625 14.875 27.625 14.875 27.0625 17.1875 C26.0625 18.1875 25.0625 19.1875 24.0625 20.1875 C23.81180087 22.81320704 23.81180087 22.81320704 24.0625 25.1875 C25.361875 25.166875 26.66125 25.14625 28 25.125 C29.35415633 25.10350546 30.71006083 25.11601801 32.0625 25.1875 C33.0625 26.1875 33.0625 26.1875 33.1953125 28.875 C33.19273437 29.968125 33.19015625 31.06125 33.1875 32.1875 C33.19136719 33.8271875 33.19136719 33.8271875 33.1953125 35.5 C33.0625 38.1875 33.0625 38.1875 32.0625 39.1875 C29.39191149 39.32865161 26.73817762 39.22997107 24.0625 39.1875 C23.20275199 41.48044488 23.20275199 41.48044488 23.0625 44.1875 C23.7225 44.8475 24.3825 45.5075 25.0625 46.1875 C27.0625 48.1875 27.0625 48.1875 27.1875 50.5625 C25.6538364 54.14104839 23.40160534 57.10740159 20.0625 59.1875 C17.41749327 58.8941536 16.42128569 58.61151945 14.6875 56.5625 C14.15125 56.10875 13.615 55.655 13.0625 55.1875 C9.91328091 55.42033149 9.91328091 55.42033149 7.0625 56.1875 C7.083125 57.486875 7.10375 58.78625 7.125 60.125 C7.14649454 61.47915633 7.13398199 62.83506083 7.0625 64.1875 C6.0625 65.1875 6.0625 65.1875 3.375 65.3203125 C2.281875 65.31773438 1.18875 65.31515625 0.0625 65.3125 C-1.030625 65.31507812 -2.12375 65.31765625 -3.25 65.3203125 C-5.9375 65.1875 -5.9375 65.1875 -6.9375 64.1875 C-7.07865161 61.51691149 -6.97997107 58.86317762 -6.9375 56.1875 C-9.81200983 55.93701364 -9.81200983 55.93701364 -12.9375 56.1875 C-13.4325 56.703125 -13.9275 57.21875 -14.4375 57.75 C-15.9375 59.1875 -15.9375 59.1875 -18.8125 59.25 C-23.17580052 57.76647782 -24.44017826 56.04699723 -26.9375 52.1875 C-26.9375 49.33655514 -26.0720486 48.35827322 -24.3125 46.125 C-23.85875 45.485625 -23.405 44.84625 -22.9375 44.1875 C-23.4325 42.7025 -23.4325 42.7025 -23.9375 41.1875 C-25.77941857 40.42147184 -25.77941857 40.42147184 -27.9375 40.0625 C-31.86126682 39.26373318 -31.86126682 39.26373318 -32.9375 38.1875 C-33.03623816 36.18950428 -33.06721799 34.18792842 -33.0625 32.1875 C-33.06507812 31.094375 -33.06765625 30.00125 -33.0703125 28.875 C-32.9375 26.1875 -32.9375 26.1875 -31.9375 25.1875 C-29.28286879 24.73290142 -26.61560862 24.48506762 -23.9375 24.1875 C-23.07391377 22.40608253 -23.07391377 22.40608253 -22.9375 20.1875 C-23.5975 19.548125 -24.2575 18.90875 -24.9375 18.25 C-26.9375 16.1875 -26.9375 16.1875 -27.125 13.8125 C-25.35493527 9.89972533 -22.30738058 7.74790535 -18.9375 5.1875 C-16.46949953 6.33923355 -14.88966435 7.23533565 -12.9375 9.1875 C-9.85402174 9.35431109 -9.85402174 9.35431109 -6.9375 9.1875 C-6.958125 7.888125 -6.97875 6.58875 -7 5.25 C-7.02149454 3.89584367 -7.00898199 2.53993917 -6.9375 1.1875 C-5.13003866 -0.61996134 -2.43304219 0.01446517 0 0 Z M0.0625 6.1875 C0.083125 7.26 0.10375 8.3325 0.125 9.4375 C-0.9375 13.1875 -0.9375 13.1875 -2.8671875 14.578125 C-9.62979368 17.72661706 -9.62979368 17.72661706 -13.9375 16.1875 C-15.2854743 15.55095658 -16.62346724 14.89144612 -17.9375 14.1875 C-17.421875 14.72375 -16.90625 15.26 -16.375 15.8125 C-14.9375 18.1875 -14.9375 18.1875 -15.125 21.0625 C-15.9309528 24.16231847 -16.86037233 27.17154254 -17.9375 30.1875 C-20.2475 30.5175 -22.5575 30.8475 -24.9375 31.1875 C-24.9375 31.8475 -24.9375 32.5075 -24.9375 33.1875 C-22.6275 33.5175 -20.3175 33.8475 -17.9375 34.1875 C-14.26365623 42.55224033 -14.26365623 42.55224033 -15.9375 47.1875 C-17 49.5 -17 49.5 -17.9375 51.1875 C-17.421875 50.671875 -16.90625 50.15625 -16.375 49.625 C-12.88479427 47.56667355 -10.83573911 48.32856596 -6.9375 49.1875 C-4.58228088 49.80150654 -2.26605818 50.47467607 0.0625 51.1875 C0.0625 53.4975 0.0625 55.8075 0.0625 58.1875 C0.3925 58.1875 0.7225 58.1875 1.0625 58.1875 C1.2275 57.094375 1.3925 56.00125 1.5625 54.875 C3.0625 51.1875 3.0625 51.1875 4.80078125 50.01953125 C8.79771591 48.41624107 11.89568055 47.6828152 16.0625 49.1875 C18.375 50.25 18.375 50.25 20.0625 51.1875 C19.381875 50.465625 18.70125 49.74375 18 49 C16.0625 46.1875 16.0625 46.1875 16.125 43.8125 C16.434375 42.94625 16.74375 42.08 17.0625 41.1875 C17.43375 39.95 17.805 38.7125 18.1875 37.4375 C18.80625 36.365 19.425 35.2925 20.0625 34.1875 C23.75 33.25 23.75 33.25 27.0625 33.1875 C26.5675 32.1975 26.5675 32.1975 26.0625 31.1875 C23.7525 31.1875 21.4425 31.1875 19.0625 31.1875 C18.93875 30.32125 18.815 29.455 18.6875 28.5625 C18.18672973 25.16727656 18.18672973 25.16727656 16.75 22.125 C16.523125 21.155625 16.29625 20.18625 16.0625 19.1875 C17.9375 16.3125 17.9375 16.3125 20.0625 14.1875 C19.485 14.496875 18.9075 14.80625 18.3125 15.125 C14.36229466 16.99037474 14.36229466 16.99037474 12.0625 17.1875 C9.70833651 16.23757438 7.37354818 15.23797644 5.0625 14.1875 C4.0725 14.1875 3.0825 14.1875 2.0625 14.1875 C1.7325 11.5475 1.4025 8.9075 1.0625 6.1875 C0.7325 6.1875 0.4025 6.1875 0.0625 6.1875 Z " fill="#b98a08" transform="translate(106.9375,14.8125)"/>
<path d="M0 0 C1.34362885 0.00031689 2.68728332 0.01162897 4.03076172 0.03173828 C4.73820526 0.03456818 5.4456488 0.03739807 6.17453003 0.04031372 C8.43667432 0.05151941 10.69842437 0.07662399 12.96044922 0.10205078 C14.49299559 0.11208011 16.02554816 0.12120604 17.55810547 0.12939453 C21.31737223 0.15145992 25.07634386 0.18599183 28.83544922 0.22705078 C29.46044922 2.60205078 29.46044922 2.60205078 29.83544922 5.22705078 C27.83544922 7.22705078 27.83544922 7.22705078 25.12988281 7.45410156 C24.0092041 7.44362793 22.88852539 7.4331543 21.73388672 7.42236328 C20.64253418 7.41736816 19.55118164 7.41237305 18.42675781 7.40722656 C17.03537598 7.38901855 15.64399414 7.37081055 14.21044922 7.35205078 C9.79669922 7.31080078 5.38294922 7.26955078 0.83544922 7.22705078 C0.83544922 24.05705078 0.83544922 40.88705078 0.83544922 58.22705078 C7.43544922 58.22705078 14.03544922 58.22705078 20.83544922 58.22705078 C24.98810519 58.28414449 29.13709816 58.34988131 33.28857422 58.44580078 C34.32568542 58.46799683 35.36279663 58.49019287 36.43133545 58.51306152 C39.64942097 58.58238294 42.86743183 58.65464296 46.08544922 58.72705078 C48.30679909 58.77542569 50.52815325 58.82360382 52.74951172 58.87158203 C58.11154231 58.98781264 63.47351555 59.10643588 68.83544922 59.22705078 C68.81224609 58.02306641 68.78904297 56.81908203 68.76513672 55.57861328 C68.74638059 54.00309863 68.72818022 52.4275773 68.71044922 50.85205078 C68.69369141 50.05798828 68.67693359 49.26392578 68.65966797 48.44580078 C68.64209449 46.37213063 68.73209754 44.29821837 68.83544922 42.22705078 C69.82544922 41.23705078 69.82544922 41.23705078 70.83544922 40.22705078 C72.15544922 40.22705078 73.47544922 40.22705078 74.83544922 40.22705078 C76.7206445 43.99744135 76.02020916 48.57859673 76.02294922 52.72705078 C76.03519531 53.70287109 76.04744141 54.67869141 76.06005859 55.68408203 C76.06199219 56.61607422 76.06392578 57.54806641 76.06591797 58.50830078 C76.07002686 59.36488281 76.07413574 60.22146484 76.07836914 61.10400391 C75.83544922 63.22705078 75.83544922 63.22705078 73.83544922 65.22705078 C71.34135274 65.42005336 68.95880769 65.48942538 66.46411133 65.4699707 C65.70464706 65.47186905 64.9451828 65.4737674 64.16270447 65.47572327 C61.64596315 65.47943574 59.12950875 65.46872114 56.61279297 65.45751953 C54.86926813 65.45632799 53.12574264 65.45587451 51.38221741 65.45613098 C47.72620635 65.45456535 44.0702931 65.44626901 40.41430664 65.43286133 C35.71743355 65.4158588 31.02066792 65.41204729 26.32376766 65.41280651 C22.72338324 65.4125352 19.12302251 65.4070604 15.52264595 65.39980507 C13.79020937 65.39661311 12.0577701 65.39464977 10.32533073 65.39391136 C7.90930433 65.39175406 5.49339419 65.38302355 3.07739258 65.37231445 C2.35477234 65.37276764 1.6321521 65.37322083 0.88763428 65.37368774 C-4.05007574 65.34152582 -4.05007574 65.34152582 -5.16455078 64.22705078 C-5.26900635 62.30488001 -5.30310215 60.37885259 -5.30981445 58.45385742 C-5.31619431 57.21910172 -5.32257416 55.98434601 -5.32914734 54.71217346 C-5.3306759 53.35385171 -5.33178992 51.99552944 -5.33251953 50.63720703 C-5.33573048 49.25337183 -5.33909443 47.86953698 -5.34260559 46.48570251 C-5.34860302 43.58119927 -5.35044487 40.6767258 -5.34985352 37.7722168 C-5.34975187 34.04502932 -5.3634035 30.31803225 -5.38062572 26.59088993 C-5.39172858 23.7316347 -5.39377325 20.87242575 -5.39324379 18.01315117 C-5.39442652 16.63879172 -5.39886466 15.26443117 -5.40657616 13.89009285 C-5.41634076 11.96996626 -5.41224293 10.04978416 -5.4074707 8.12963867 C-5.40889572 7.03567276 -5.41032074 5.94170685 -5.41178894 4.81459045 C-5.02971244 0.81586262 -3.92766999 0.2818032 0 0 Z " fill="#262522" transform="translate(40.16455078125,43.77294921875)"/>
<path d="M0 0 C3.19271308 3.47442306 4.97426624 6.76775955 5.2578125 11.5546875 C4.92595347 17.35245998 3.30536383 20.3265717 -0.875 24.3125 C-5.55382154 27.21556411 -10.5442351 26.93828544 -15.875 26.3125 C-20.35163127 24.15412421 -22.86440477 21.86279447 -24.875 17.3125 C-26.38827234 11.58368327 -25.74424706 7.39738186 -22.875 2.3125 C-16.01608545 -4.73179062 -8.16189814 -4.79067934 0 0 Z M-18.875 8.3125 C-19.58735686 12.1117366 -19.18763988 13.74974821 -17.3125 17.125 C-14.14850128 19.96448603 -12.08342764 20.23734951 -7.875 20.3125 C-4.47691974 19.21041992 -3.92768083 18.39152124 -1.875 15.3125 C-1.30948625 10.94996537 -1.38177349 9.01497412 -3.9375 5.375 C-6.7710646 3.07715628 -6.7710646 3.07715628 -10.375 2.6875 C-14.8047642 3.47852932 -16.26710172 4.67724785 -18.875 8.3125 Z " fill="#262522" transform="translate(117.875,35.6875)"/>
<path d="M0 0 C3.44905576 2.09942525 5.7111527 4.1334581 7 8 C7.1875 10.6875 7.1875 10.6875 7 13 C6 14 6 14 3.4375 14.0625 C2.633125 14.041875 1.82875 14.02125 1 14 C0.34 11.69 -0.32 9.38 -1 7 C-3.31 7.33 -5.62 7.66 -8 8 C-8.02684679 10.64590014 -8.04676357 13.29153096 -8.0625 15.9375 C-8.07087891 16.69224609 -8.07925781 17.44699219 -8.08789062 18.22460938 C-8.09652441 20.14994313 -8.05224333 22.07535581 -8 24 C-6.93354885 25.29633621 -6.93354885 25.29633621 -4.4375 25.0625 C-3.2309375 25.0315625 -3.2309375 25.0315625 -2 25 C-1.5875 24.030625 -1.175 23.06125 -0.75 22.0625 C1 19 1 19 3.0625 18 C3.701875 18 4.34125 18 5 18 C5.66 18.66 6.32 19.32 7 20 C6.91657387 24.42158491 6.45081976 26.46826387 3.5625 29.875 C0.25773302 32.61553847 -1.12055293 33.1990833 -5.3125 32.875 C-8.97176803 32.42716688 -9.97223131 32.02198354 -13 29.625 C-16.24813782 25.36181911 -16.18780347 21.92755725 -16.25 16.6875 C-16.27578125 15.39199219 -16.3015625 14.09648438 -16.328125 12.76171875 C-15.89639276 7.81221704 -14.61710327 4.38608852 -10.8125 1.125 C-7.09190558 -0.36323777 -3.95233793 -0.72806225 0 0 Z " fill="#b98a08" transform="translate(69,68)"/>
<path d="M0 0 C3.46679688 0.04882812 3.46679688 0.04882812 6.93359375 0.09765625 C6.93359375 3.06765625 6.93359375 6.03765625 6.93359375 9.09765625 C3.23817789 10.04790604 0.62900961 10.04790604 -3.06640625 9.09765625 C-3.1640625 2.9453125 -3.1640625 2.9453125 -3.06640625 1.09765625 C-2.06640625 0.09765625 -2.06640625 0.09765625 0 0 Z " fill="#b98a08" transform="translate(64.06640625,56.90234375)"/>
<path d="M0 0 C2.97 0 5.94 0 9 0 C9 2.97 9 5.94 9 9 C5.93109813 10.53445094 3.29905734 9.54984289 0 9 C0 6.03 0 3.06 0 0 Z " fill="#262522" transform="translate(48,57)"/>
</svg>